# xmcd
#
# Track frame offsets: 
#        150
#        13595
#        26832
#        40872
#        53780
#        73372
#        90495
#        103637
#        118510
#        132665
#
# Disc length: 1983 seconds
#
# Revision: 10
# Processed by: cddbd v1.5.2PL0 Copyright (c) Steve Scherf et al.
# Submitted via: ExactAudioCopy v0.95a4
#
DISCID=8907bd0a,8e07be0a
DTITLE=Brooks and Dunn - Brand New Man
DYEAR=1991
DGENRE=Country
TTITLE0=Brand New Man
TTITLE1=My Next Broken Heart
TTITLE2=Cool Drink Of Water
TTITLE3=Cheating On The Blues
TTITLE4=Neon Moon
TTITLE5=Lost And Found
TTITLE6=I've Got A Lot To Learn
TTITLE7=Boot Scootin' Boogie
TTITLE8=I'm No Good
TTITLE9=Still In Love With You
EXTD=This is a reissue of Brand New Man by BMG Special Products. The c
EXTD=atalog number is 75517489262
EXTT0=
EXTT1=
EXTT2=
EXTT3=
EXTT4=
EXTT5=
EXTT6=
EXTT7=
EXTT8=
EXTT9=
PLAYORDER=
